<?xml version="1.0" encoding="UTF-8" standalone="no"?>
<!-- Created with Inkscape (http://www.inkscape.org/) -->

<svg
   xmlns:dc="http://purl.org/dc/elements/1.1/"
   xmlns:cc="http://creativecommons.org/ns#"
   xmlns:rdf="http://www.w3.org/1999/02/22-rdf-syntax-ns#"
   xmlns:svg="http://www.w3.org/2000/svg"
   xmlns="http://www.w3.org/2000/svg"
   xmlns:sodipodi="http://sodipodi.sourceforge.net/DTD/sodipodi-0.dtd"
   xmlns:inkscape="http://www.inkscape.org/namespaces/inkscape"
   width="210mm"
   height="297mm"
   viewBox="0 0 744.09448819 1052.3622047"
   id="svg2"
   version="1.1"
   inkscape:version="0.91 r13725"
   sodipodi:docname="openzoo.svg">
  <defs
     id="defs4" />
  <sodipodi:namedview
     id="base"
     pagecolor="#ffffff"
     bordercolor="#666666"
     borderopacity="1.0"
     inkscape:pageopacity="0.0"
     inkscape:pageshadow="2"
     inkscape:zoom="0.7"
     inkscape:cx="-32.92414"
     inkscape:cy="626.87487"
     inkscape:document-units="px"
     inkscape:current-layer="layer1"
     showgrid="false"
     inkscape:window-width="1920"
     inkscape:window-height="1018"
     inkscape:window-x="1272"
     inkscape:window-y="-8"
     inkscape:window-maximized="1" />
  <metadata
     id="metadata7">
    <rdf:RDF>
      <cc:Work
         rdf:about="">
        <dc:format>image/svg+xml</dc:format>
        <dc:type
           rdf:resource="http://purl.org/dc/dcmitype/StillImage" />
        <dc:title></dc:title>
      </cc:Work>
    </rdf:RDF>
  </metadata>
  <g
     inkscape:label="Layer 1"
     inkscape:groupmode="layer"
     id="layer1">
    <path
       style="fill:#000000"
       d=""
       id="path4148"
       inkscape:connector-curvature="0" />
    <path
       style="fill:#ff0000"
       d="m 43.3007,384.64658 c -2.50695,-1.46334 -5.47112,-3.82988 -6.58704,-5.25898 -2.53686,-3.24883 -9.18031,-15.61937 -9.18031,-17.09435 0,-0.60283 -0.61357,-1.56042 -1.3635,-2.12797 -1.26999,-0.96115 -3.0909,-7.41574 -2.73436,-9.69251 0.087,-0.55526 -0.51704,-1.52052 -1.34222,-2.14502 -0.82517,-0.6245 -1.50031,-2.25641 -1.50031,-3.62646 0,-1.37005 -0.62072,-2.96077 -1.37938,-3.53492 -0.75866,-0.57417 -1.62974,-2.14972 -1.93574,-3.50124 -0.30601,-1.35151 -1.20779,-4.89846 -2.00397,-7.88212 -4.43955,-16.63706 -4.83188,-19.62804 -4.383,-33.4145 0.43585,-13.38636 0.49764,-13.70043 3.92127,-19.92965 1.91315,-3.48094 4.34492,-7.95642 5.40394,-9.94553 3.32539,-6.24589 8.2719,-13.70392 10.06005,-15.16788 3.7932,-3.10552 15.81341,-7.99414 22.00062,-8.94765 8.72912,-1.34525 39.45803,-2.04903 40.98721,-0.93874 0.65705,0.47707 4.5409,2.42093 8.63078,4.3197 8.89341,4.12886 16.98485,9.38228 22.06054,14.32298 3.50985,3.4165 3.71807,3.94906 3.71807,9.5096 0,6.22678 -1.90916,15.43683 -3.19991,15.43683 -0.42131,0 -0.76603,7.6449 -0.76603,16.98866 0,11.42189 -0.44687,18.60631 -1.36375,21.92536 -0.75006,2.71518 -1.63998,6.971 -1.97757,9.45738 -1.82567,13.44554 -2.57683,16.9471 -4.39874,20.50461 -1.10052,2.14892 -3.45758,6.85687 -5.23793,10.46212 -1.78035,3.60525 -3.60415,6.555 -4.05288,6.555 -0.44873,0 -0.81587,0.71545 -0.81587,1.5899 0,2.44764 -9.6497,11.76132 -13.22042,12.76006 -1.7265,0.4829 -12.50861,1.13854 -23.96026,1.45697 l -20.82119,0.57896 -4.5581,-2.66061 z"
       id="path4210"
       inkscape:connector-curvature="0" />
    <path
       style="fill:#ff0000"
       d="m 131.63929,446.98348 c 0,-8.19915 0.40767,-12.81797 1.23936,-14.04172 1.02169,-1.50332 0.97815,-1.97234 -0.24787,-2.6705 -1.29861,-0.7395 -1.44774,-7.07152 -1.17586,-49.92605 0.17125,-26.99354 0.53584,-49.79085 0.81019,-50.66071 0.39551,-1.25399 0.89363,-1.38888 2.40501,-0.65127 1.43733,0.70146 3.06713,0.46676 6.62595,-0.95419 2.59587,-1.03646 5.61209,-2.2414 6.70272,-2.67764 1.09064,-0.43624 3.32148,-0.99693 4.95743,-1.24598 1.63595,-0.24904 5.42838,-1.09734 8.42763,-1.88509 2.99924,-0.78775 10.02631,-1.69069 15.61571,-2.00653 8.58267,-0.48497 10.77911,-0.3207 14.12866,1.05666 2.18136,0.89701 3.96612,1.90063 3.96612,2.23028 0,0.67574 6.4895,3.64669 7.96552,3.64669 0.52681,0 1.96173,0.91517 3.18868,2.0337 2.1278,1.93976 2.23075,2.70192 2.22873,16.50052 -0.002,14.16028 -0.0595,14.55305 -2.70999,18.53545 -1.48934,2.23775 -3.11649,4.88235 -3.6159,5.87691 -0.49941,0.99454 -2.40309,3.36472 -4.2304,5.26705 -3.05919,3.18477 -4.06856,3.59424 -12.74149,5.16877 -23.48004,4.2627 -38.58594,0.52197 -45.50256,-11.26798 -2.79933,-4.77168 -7.04615,-8.21789 -7.04615,-5.7178 0,0.74568 0.66925,1.86228 1.48722,2.48133 1.19633,0.9054 1.48723,3.67916 1.48723,14.181 0,9.15273 0.45826,14.45762 1.53297,17.74603 3.28315,10.04578 4.78768,13.81752 6.37923,15.9923 2.68413,3.66774 5.48566,9.20578 6.86064,13.56207 0.70631,2.23775 1.74682,4.86265 2.31226,5.83313 0.56545,0.97047 1.25449,7.17513 1.53121,13.78811 l 0.50312,12.0236 -11.54268,0 -11.54269,0 0,-12.21814 z"
       id="path4214"
       inkscape:connector-curvature="0" />
    <path
       style="fill:#ff0000"
       d="m 250.31106,390.11598 c -7.92095,-1.41481 -8.58682,-1.71259 -16.09112,-7.19588 -10.36261,-7.57183 -11.36402,-9.85144 -11.36402,-25.86904 0,-10.1497 0.44529,-14.52216 1.72109,-16.89981 0.94661,-1.76414 1.72111,-4.56733 1.72111,-6.22929 0,-6.5867 10.49098,-13.2447 26.96392,-17.11239 6.69217,-1.57126 37.84019,-1.94883 39.01164,-0.47288 0.39003,0.4914 1.96949,0.89346 3.50991,0.89346 1.54045,0 2.80079,0.32625 2.80079,0.72499 0,0.39875 1.07134,1.62043 2.38076,2.71487 2.21304,1.8497 2.35449,2.85755 2.00795,14.30695 -0.39706,13.11847 -0.43246,13.20245 -6.92999,16.43971 -4.11928,2.05234 -17.54421,2.20581 -18.52686,0.21178 -0.36326,-0.73711 -1.94737,-1.34019 -3.52027,-1.34019 -1.5729,0 -3.85899,-0.83513 -5.08018,-1.85583 -1.92236,-1.60674 -3.96889,-1.91552 -15.24777,-2.30063 -14.73356,-0.50305 -17.38373,0.2156 -23.38377,6.34109 -2.95411,3.01587 -3.11633,3.62836 -2.44462,9.22967 0.39571,3.29969 1.24341,6.13542 1.88378,6.30164 0.64037,0.16621 1.16432,1.27931 1.16432,2.47353 0,2.13151 1.74813,5.19088 4.0159,7.02815 2.13361,1.72859 10.84063,5.84048 12.36732,5.84048 0.83393,0 2.00674,0.35912 2.60626,0.79806 1.63,1.19339 12.46444,2.77579 19.00537,2.77579 3.36271,0 8.16155,-0.80626 11.54526,-1.93974 4.65674,-1.55992 6.21186,-1.73486 7.94209,-0.89346 1.18333,0.57545 2.80393,1.05521 3.60133,1.06614 0.7974,0.011 2.64792,0.73761 4.11225,1.61485 l 2.66243,1.59498 -3.23612,1.20981 c -4.51027,1.68613 -36.63828,2.07224 -45.19876,0.54319 z"
       id="path4218"
       inkscape:connector-curvature="0" />
    <path
       style="fill:#ff0000"
       d="m 309.10863,348.00069 c 1.01356,-7.30214 1.29444,-7.92805 6.78747,-15.12558 7.58528,-9.93901 10.01187,-11.00392 27.53688,-12.08457 11.10488,-0.68475 15.91887,-0.57461 18.60635,0.42574 1.99403,0.74223 5.11328,1.25776 6.93164,1.14564 7.20657,-0.44438 15.19893,8.65139 20.54198,23.37795 2.17063,5.98269 4.68515,34.29648 3.14935,35.46187 -0.51134,0.38801 -0.84468,1.85217 -0.74076,3.25369 0.10393,1.40153 -0.16798,2.57024 -0.60426,2.59714 -0.43626,0.0269 -1.70064,1.08406 -2.80974,2.34923 -1.87447,2.13828 -2.96762,2.33497 -15.5179,2.79213 -14.37983,0.5238 -14.47409,0.49725 -18.45437,-5.19597 -2.52341,-3.60935 -3.59704,-15.81335 -1.48165,-16.84192 0.78196,-0.38022 1.33493,-1.86217 1.22882,-3.29324 -0.10612,-1.43106 0.65337,-3.56734 1.68774,-4.74729 1.62825,-1.85741 1.82802,-3.74022 1.48843,-14.02801 -0.44362,-13.4389 -1.40871,-15.80162 -8.51546,-20.84734 -3.49898,-2.48425 -4.18007,-2.59053 -10.26319,-1.60149 -3.58352,0.58265 -6.62894,1.54521 -6.76759,2.13906 -0.13866,0.59384 -1.32116,1.14563 -2.62777,1.2262 -2.3321,0.14381 -5.56145,1.94071 -7.41862,4.12793 -1.74732,2.05784 -5.65875,10.25712 -5.55575,11.64614 0.0563,0.75873 -0.25754,1.85001 -0.69733,2.42508 -1.19573,1.56353 -2.19609,11.52773 -1.7548,17.47884 0.22687,3.05948 1.43276,7.37119 2.9012,10.3733 2.02089,4.13158 2.31721,5.53467 1.51336,7.16563 -0.54977,1.11545 -0.96534,2.62228 -0.9235,3.34851 0.0418,0.72624 -0.62839,2.45891 -1.48939,3.85038 l -1.56546,2.52996 -1.542,-2.86269 c -2.14909,-3.98979 -4.73909,-33.19462 -3.64368,-41.08632 z"
       id="path4218-7"
       inkscape:connector-curvature="0" />
    <g
       id="g4247"
       transform="matrix(0.85448394,0,0,0.79206117,223.45653,-342.23597)"
       style="fill:#ff0000">
      <path
         inkscape:connector-curvature="0"
         id="path4239"
         d="m 273.50443,931.38732 c -1.96428,-0.39234 -4.18214,-1.30177 -4.92857,-2.02095 -0.74643,-0.71918 -5.39792,-1.3076 -10.33664,-1.3076 -8.58954,0 -18.20904,-1.67719 -26.40522,-4.6038 -4.34394,-1.55109 -12.61528,-10.05972 -12.61528,-12.97718 0,-1.06856 -0.48215,-2.42054 -1.07143,-3.00439 -1.21204,-1.20087 -4.29753,-22.09303 -5.54578,-37.55107 l -0.83007,-10.27929 6.63089,-4.72071 c 6.59085,-4.6922 18.64656,-11.59082 33.67353,-19.26896 4.32143,-2.20807 8.62231,-4.65944 9.55752,-5.44749 0.93521,-0.78806 4.02514,-3.03997 6.86652,-5.00426 2.84137,-1.96428 6.90329,-5.23369 9.02649,-7.26534 2.12321,-2.03165 5.31914,-4.47462 7.10207,-5.42882 6.63965,-3.55343 1.18461,-4.44909 -27.27977,-4.47909 -26.78479,-0.0282 -61.48539,-2.62884 -65.12963,-4.8811 -0.86447,-0.53428 -1.57177,-3.83505 -1.57177,-7.33506 0,-11.41656 4.93785,-16.60938 18.85343,-19.82692 11.03198,-2.5508 36.64808,-2.94365 44.01314,-0.67499 15.91489,4.90226 23.48143,6.04678 50.70485,7.6697 l 30,1.78844 -35.35714,0.21659 c -22.47465,0.13768 -35.35714,0.7371 -35.35714,1.64516 0,1.21903 75.39528,2.40626 92.57147,1.4577 6.32351,-0.34921 8.8571,2.09585 8.8571,8.54767 0,4.54491 -0.82296,5.98144 -5.35714,9.3513 -5.53972,4.11717 -24.80999,19.37297 -26.07143,20.64011 -1.21296,1.21843 -6.31588,4.26455 -8.57143,5.11661 -1.17857,0.44521 -4.25395,1.72683 -6.83418,2.84805 -2.58023,1.12121 -6.23872,2.03856 -8.12998,2.03856 -1.89126,0 -3.78464,0.55983 -4.20752,1.24406 -0.42287,0.68423 -2.76956,1.64419 -5.21486,2.13325 -5.65772,1.13155 -15.3215,5.96707 -33.10838,16.56665 -7.86006,4.68398 -18.21628,15.61655 -21.31085,22.49687 -1.48728,3.30674 -3.3287,6.39825 -4.09204,6.87003 -0.76335,0.47177 -1.3879,3.39125 -1.3879,6.48774 0,4.46908 0.53023,5.62998 2.57143,5.62998 1.41428,0 3.33644,0.76501 4.27145,1.70002 1.23667,1.23667 19.92813,1.96875 68.57856,2.68599 64.49893,0.95088 67.09177,1.09474 72.8714,4.04329 5.62768,2.87103 5.99014,3.42554 5.94798,9.09972 -0.057,7.66392 -2.80238,9.78755 -17.11118,13.2357 -8.9477,2.15623 -18.07432,2.63598 -55.70107,2.92796 -24.75,0.19207 -46.60714,0.0283 -48.57143,-0.36413 z"
         style="fill:#ff0000" />
      <path
         inkscape:connector-curvature="0"
         d="m 281.37369,778.98702 c 5.0697,0.1103 10.14121,0.0679 15.21161,0.0429 4.22229,-0.0152 8.44447,-0.0131 12.66676,2.4e-4 4.22176,0.007 8.44348,-0.007 12.66521,-0.0218 3.24122,0.6272 6.56571,0.79478 9.78744,1.4902 3.36691,0.81921 6.82021,1.08944 10.26996,1.2607 3.20388,-0.0488 6.30424,0.13719 9.35384,1.16267 3.14643,0.87431 6.25742,1.83375 9.11371,3.44677 1.4936,0.70247 2.83839,1.64911 4.17874,2.59944 0,0 -17.83459,11.38886 -17.83459,11.38886 l 0,0 c -1.31014,-0.8627 -2.63328,-1.70062 -4.04531,-2.39144 -2.83837,-1.36537 -5.85755,-2.23386 -8.88666,-3.07115 -2.99126,-0.67491 -6.01486,-0.68343 -9.06819,-0.81032 -3.50189,-0.2637 -6.98256,-0.69203 -10.41325,-1.46293 -3.1733,-0.4623 -6.35419,-0.97447 -9.55296,-1.19091 -4.20177,-0.0151 -8.40352,-0.0291 -12.60533,-0.0217 -4.22249,0.0132 -8.44489,0.0156 -12.66739,2.3e-4 -5.10979,-0.0255 -10.22059,-0.0657 -15.32972,0.0429 0,0 17.15613,-12.46465 17.15613,-12.46465 z"
         id="path4241"
         style="fill:#ff0000" />
      <path
         inkscape:connector-curvature="0"
         d="m 262.80226,776.12988 c 4.39504,0.0835 8.79116,0.0348 13.18667,0.0363 3.97074,0.0124 7.94148,-0.009 11.91219,-0.0206 3.00652,-0.009 6.01305,-0.0112 9.01958,-0.0125 2.949,-0.27519 5.76596,0.30091 8.64906,0.79145 2.9407,0.15075 5.62617,1.05056 8.30224,2.1926 2.57081,1.01101 5.17749,2.05944 7.53971,3.50407 2.57113,1.61178 5.52762,2.26652 8.28269,3.41862 1.2851,0.43057 2.46302,1.09399 3.70163,1.63687 0,0 -17.66727,11.73351 -17.66727,11.73351 l 0,0 c -1.1998,-0.5475 -2.39744,-1.10357 -3.63868,-1.55326 -2.9048,-1.04068 -5.77363,-2.13222 -8.45899,-3.68049 -2.38595,-1.2643 -4.88923,-2.28909 -7.40231,-3.27193 -2.57516,-1.03665 -5.26362,-1.47126 -8.01052,-1.81083 -2.80509,-0.4684 -5.59862,-0.6243 -8.4448,-0.50242 -2.99508,-10e-4 -5.99016,-0.003 -8.98523,-0.0125 -3.95183,-0.0121 -7.90367,-0.033 -11.85552,-0.0206 -4.42882,0.002 -8.8582,-0.0465 -13.28658,0.0363 0,0 17.15613,-12.46465 17.15613,-12.46465 z"
         id="path4243"
         style="fill:#ff0000" />
      <path
         inkscape:connector-curvature="0"
         d="m 227.78906,857.72134 c -1.18617,4.23274 -1.85492,8.5822 -2.30177,12.94785 -0.29337,3.16102 -0.33186,6.33681 -0.34919,9.50887 -0.008,2.91234 0.0175,5.82463 1.7e-4,8.73693 0.2143,2.76487 1.17513,5.50659 2.21266,8.07371 0.74545,2.21895 1.9057,4.23607 2.97422,6.30629 1.24755,1.97054 2.68662,3.80626 4.14696,5.62535 1.6562,2.83824 4.01132,4.91427 6.74348,6.67565 2.66388,2.04364 5.70205,2.82909 8.96505,3.21025 3.48917,0.2918 6.99536,0.2527 10.49355,0.23659 3.236,-0.0319 6.4721,-0.0275 9.7082,-0.0349 2.11972,-0.005 1.11287,0.10727 3.0257,-0.28769 0,0 -16.99524,12.66203 -16.99524,12.66203 l 0,0 c -2.04344,0.085 -0.99623,0.0617 -3.14177,0.0639 -3.23778,0.008 -6.47544,0.0413 -9.71326,0.0314 -3.55986,-0.0193 -7.13842,-0.009 -10.67177,-0.49574 -3.4716,-0.63097 -6.64568,-1.8481 -9.48631,-3.99961 -2.79137,-1.98458 -5.31922,-4.21569 -7.12482,-7.16822 -1.57025,-1.91436 -3.0981,-3.86724 -4.38,-5.98906 -1.1072,-2.12431 -2.3296,-4.18335 -3.06586,-6.47853 -1.15069,-2.81109 -2.09283,-5.82235 -2.5512,-8.81762 -0.0271,-2.91307 -0.0238,-5.82635 -0.0253,-8.73953 0.0137,-3.244 0.0445,-6.49181 0.33165,-9.72556 0.43698,-4.43327 1.13912,-8.82949 2.08609,-13.18363 0,0 19.11879,-9.1587 19.11879,-9.1587 z"
         id="path4245"
         style="fill:#ff0000" />
    </g>
    <path
       style="fill:#ff0000"
       d="m 585.86117,393.13531 c -1.48997,-1.07366 -3.2517,-2.81002 -3.91493,-3.85856 -1.50776,-2.38369 -5.45622,-11.46007 -5.45622,-12.54228 0,-0.44231 -0.36467,-1.1449 -0.81038,-1.56131 -0.75481,-0.70522 -1.83705,-5.44101 -1.62514,-7.11149 0.0517,-0.40741 -0.3073,-1.11562 -0.79773,-1.57382 -0.49043,-0.45821 -0.8917,-1.65555 -0.8917,-2.66077 0,-1.00522 -0.36891,-2.17235 -0.81982,-2.59361 -0.4509,-0.42127 -0.96861,-1.57727 -1.15048,-2.56889 -0.18188,-0.99162 -0.71785,-3.59405 -1.19104,-5.78319 -2.63861,-12.20677 -2.87179,-14.40128 -2.60499,-24.51653 0.25904,-9.8217 0.29577,-10.05214 2.33056,-14.62257 1.13706,-2.554 2.58236,-5.83771 3.21178,-7.29713 1.97641,-4.58267 4.91631,-10.05469 5.97908,-11.12882 2.25445,-2.27855 9.39853,-5.86537 13.07584,-6.56498 5.18806,-0.98702 23.45146,-1.50339 24.36031,-0.68876 0.39051,0.35003 2.69884,1.77626 5.12961,3.16941 5.28571,3.02938 10.09477,6.88387 13.11145,10.5089 2.08605,2.50672 2.2098,2.89746 2.2098,6.97728 0,4.56865 -1.13469,11.32615 -1.90183,11.32615 -0.2504,0 -0.45528,5.60914 -0.45528,12.46475 0,8.38035 -0.2656,13.65162 -0.81053,16.08684 -0.44579,1.99215 -0.97471,5.11468 -1.17535,6.93896 -1.08507,9.86513 -1.53152,12.43426 -2.61435,15.04444 -0.65408,1.57667 -2.05497,5.03094 -3.1131,7.67615 -1.05814,2.6452 -2.14209,4.80946 -2.40878,4.80946 -0.26671,0 -0.48492,0.52494 -0.48492,1.16653 0,1.79585 -5.73519,8.62939 -7.85741,9.36218 -1.02613,0.35431 -7.43436,0.83535 -14.24053,1.06899 l -12.37485,0.42479 -2.70907,-1.95212 z"
       id="path4210-2"
       inkscape:connector-curvature="0" />
    <path
       style="fill:#ff0000"
       d="m 663.37508,392.56955 c -1.48997,-1.07366 -3.25171,-2.81002 -3.91494,-3.85856 -1.50775,-2.3837 -5.45621,-11.46008 -5.45621,-12.54228 0,-0.44231 -0.36468,-1.14491 -0.81039,-1.56132 -0.75481,-0.70521 -1.83705,-5.441 -1.62514,-7.11149 0.0517,-0.4074 -0.30731,-1.11561 -0.79774,-1.57381 -0.49043,-0.45821 -0.89169,-1.65555 -0.89169,-2.66077 0,-1.00522 -0.36892,-2.17235 -0.81982,-2.59361 -0.4509,-0.42127 -0.96862,-1.57727 -1.15049,-2.56889 -0.18187,-0.99162 -0.71784,-3.59405 -1.19104,-5.78319 -2.6386,-12.20677 -2.87178,-14.40128 -2.60499,-24.51653 0.25904,-9.8217 0.29578,-10.05214 2.33057,-14.62258 1.13706,-2.55399 2.58236,-5.8377 3.21177,-7.29712 1.97641,-4.58267 4.91633,-10.05469 5.97909,-11.12882 2.25445,-2.27855 9.39854,-5.86538 13.07584,-6.56498 5.18806,-0.98702 23.45147,-1.5034 24.36031,-0.68876 0.39051,0.35003 2.69884,1.77626 5.12962,3.16941 5.28571,3.02938 10.09477,6.88387 13.11145,10.5089 2.08604,2.50671 2.20979,2.89746 2.20979,6.97728 0,4.56865 -1.13468,11.32615 -1.90183,11.32615 -0.2504,0 -0.45528,5.60913 -0.45528,12.46475 0,8.38035 -0.2656,13.65162 -0.81053,16.08684 -0.44579,1.99214 -0.97471,5.11468 -1.17535,6.93896 -1.08506,9.86512 -1.53151,12.43425 -2.61434,15.04444 -0.65408,1.57667 -2.05498,5.03094 -3.11311,7.67615 -1.05813,2.6452 -2.14209,4.80946 -2.40878,4.80946 -0.2667,0 -0.48491,0.52494 -0.48491,1.16653 0,1.79585 -5.7352,8.62939 -7.85742,9.36218 -1.02612,0.35431 -7.43436,0.83535 -14.24053,1.06899 l -12.37485,0.42479 -2.70906,-1.95212 z"
       id="path4210-2-0"
       inkscape:connector-curvature="0" />
  </g>
</svg>
